Coordinates
version=1
nRows=8
nColumns=46
inDegrees=yes

Units are S.I. units (second, meters, Newtons, ...)
Angles are in degrees.

endheader
time	pelvis_tilt	pelvis_list	pelvis_rotation	pelvis_tx	pelvis_ty	pelvis_tz	bb_angle	bb_tx	bb_ty	bb_tz	hip_flexion_r	hip_adduction_r	hip_rotation_r	knee_angle_r	knee_angle_r_beta	ankle_angle_r	subtalar_angle_r	mtp_angle_r	crank_angle_r	hip_flexion_l	hip_adduction_l	hip_rotation_l	knee_angle_l	knee_angle_l_beta	ankle_angle_l	subtalar_angle_l	mtp_angle_l	crank_angle_l	lumbar_extension	lumbar_bending	lumbar_rotation	arm_flex_r	arm_add_r	arm_rot_r	elbow_flex_r	pro_sup_r	wrist_flex_r	wrist_dev_r	arm_flex_l	arm_add_l	arm_rot_l	elbow_flex_l	pro_sup_l	wrist_flex_l	wrist_dev_l
      7.50000000	    -21.47957585	     -3.48781456	      0.82464690	      0.07695492	      1.01282695	     -0.22670521	      0.00000000	      0.50000000	      0.00000000	      0.25000000	     85.56099890	     -4.82987169	     -0.41587893	     77.62841684	      1.35487147	      0.95007779	     -9.58483419	      0.00000000	      0.00000000	     59.71886705	     -9.87164924	      0.23025936	     77.54544389	      1.35342332	     -7.02868657	    -10.93415717	      0.00000000	      0.00000000	    -48.64990168	     11.52746768	      0.96479440	     87.18582069	     -4.36355243	     38.07380488	     51.74611071	     47.45341016	      0.00000000	      0.00000000	     79.18818569	    -29.59865649	     35.46270393	     55.58562121	     47.96968387	      0.00000000	      0.00000000
      7.50500000	    -21.44827712	     -3.02640468	      0.85807091	      0.07724985	      1.01199384	     -0.22715142	      0.00000000	      0.50000000	      0.00000000	      0.25000000	     83.73410500	     -5.00651052	     -0.35933785	     74.86616271	      1.30666104	      1.02301534	     -9.54753769	      0.00000000	      0.00000000	     60.85152991	     -9.31690496	      0.40421757	     80.13799193	      1.39867182	     -6.64478389	    -11.44393395	      0.00000000	      0.00000000	    -48.44999073	     11.16450710	      0.62012448	     86.94142446	     -4.34947279	     37.83741053	     51.71908242	     47.41560170	      0.00000000	      0.00000000	     79.21490137	    -29.55025873	     35.53375287	     55.42587559	     47.95166361	      0.00000000	      0.00000000
      7.51000000	    -21.35180827	     -2.74624428	      0.86959660	      0.07734798	      1.01060096	     -0.22751929	      0.00000000	      0.50000000	      0.00000000	      0.25000000	     81.92866330	     -5.12468331	     -0.41990337	     72.24980152	      1.26099692	      0.93009845	     -9.38584316	      0.00000000	      0.00000000	     62.15276226	     -8.93199693	      0.72148120	     82.94459695	      1.44765631	     -6.34754687	    -12.02750017	      0.00000000	      0.00000000	    -48.31837807	     10.91024562	      0.46697430	     86.78438295	     -4.25926139	     37.50104265	     51.60423416	     47.35243073	      0.00000000	      0.00000000	     79.31703711	    -29.47353174	     35.69428990	     55.17221196	     47.93101732	      0.00000000	      0.00000000
      7.51500000	    -21.23938593	     -2.48658313	      0.91496959	      0.07734879	      1.00887090	     -0.22768348	      0.00000000	      0.50000000	      0.00000000	      0.25000000	     80.26984806	     -5.34393702	     -0.60895618	     69.92048051	      1.22034260	      0.63251919	     -9.19742438	      0.00000000	      0.00000000	     63.54119002	     -8.53185053	      1.13220106	     85.77591801	      1.49707219	     -6.22901886	    -12.34741524	      0.00000000	      0.00000000	    -48.07360072	     10.59342819	      0.40175175	     86.58123853	     -3.98076853	     36.47226363	     50.87726806	     47.11931024	      0.00000000	      0.00000000	     79.68211083	    -29.06422814	     36.75397104	     54.15401612	     47.92294571	      0.00000000	      0.00000000
      7.52000000	    -21.19612601	     -2.07539739	      0.87482984	      0.07751383	      1.00705990	     -0.22776397	      0.00000000	      0.50000000	      0.00000000	      0.25000000	     78.71007641	     -5.45618399	     -0.46685023	     67.63324239	      1.18042276	      0.33820346	     -8.79334051	      0.00000000	      0.00000000	     64.98502608	     -8.12313987	      1.28491285	     88.51439496	      1.54486763	     -6.20176831	    -12.66364327	      0.00000000	      0.00000000	    -47.78630133	     10.15642033	      0.22134052	     86.29700361	     -3.92719632	     36.03611948	     50.76565232	     47.05844216	      0.00000000	      0.00000000	     79.82440235	    -28.97506606	     37.23382101	     53.86508301	     47.95328347	      0.00000000	      0.00000000
      7.52500000	    -20.95183650	     -1.37968764	      0.89638784	      0.07783505	      1.00535259	     -0.22804337	      0.00000000	      0.50000000	      0.00000000	      0.25000000	     77.08483887	     -5.79305176	     -0.13308190	     65.61531678	      1.14520332	      0.13652553	     -8.51707333	      0.00000000	      0.00000000	     66.19608016	     -7.48543168	      1.20176796	     91.19377014	      1.59163155	     -6.18538795	    -12.86304684	      0.00000000	      0.00000000	    -47.64733961	      9.47442580	     -0.34694610	     86.01060057	     -4.01471988	     35.92181801	     50.76279673	     47.04367601	      0.00000000	      0.00000000	     79.71724222	    -28.81990333	     37.31940820	     53.88067886	     47.96302887	      0.00000000	      0.00000000
      7.53000000	    -20.90300516	     -1.18582718	      0.58566375	      0.07799415	      1.00341674	     -0.22743942	      0.00000000	      0.50000000	      0.00000000	      0.25000000	     75.49260714	     -5.53085117	     -0.18428181	     63.28728756	      1.10457154	     -0.73503717	     -8.17435773	      0.00000000	      0.00000000	     67.85742247	     -7.53122431	      1.41909071	     93.93233890	      1.63942859	     -6.53230665	    -13.48154000	      0.00000000	      0.00000000	    -47.47651808	      8.90329399	     -0.06551732	     85.78438389	     -4.07167107	     35.36607232	     50.44508742	     46.95107370	      0.00000000	      0.00000000	     80.13408171	    -28.67052563	     38.22267281	     53.69843358	     48.06475513	      0.00000000	      0.00000000
      7.53500000	    -20.69037193	     -0.50465976	      0.49728257	      0.07847701	      1.00168203	     -0.22772910	      0.00000000	      0.50000000	      0.00000000	      0.25000000	     73.88912173	     -5.84391699	      0.06335447	     61.33877608	      1.07056360	     -0.94950197	     -7.94103344	      0.00000000	      0.00000000	     69.22799751	     -6.95260479	      1.34985751	     96.51695183	      1.68453859	     -6.72367846	    -13.57658484	      0.00000000	      0.00000000	    -47.35161802	      8.13814883	     -0.58246268	     85.59825209	     -4.16182763	     35.27642692	     50.43272108	     46.94098907	      0.00000000	      0.00000000	     80.07276502	    -28.53048219	     38.34219296	     53.72167259	     48.08179366	      0.00000000	      0.00000000
